# xmcd
#
# Track frame offsets:
#	150
#	12127
#	22547
#	30960
#	45325
#	61435
#	72457
#	83442
#	97615
#	113675
#
# Disc length: 1650 seconds
#
# Revision: 1
# Processed by: cddbd v1.4PL0 Copyright (c) Steve Scherf et al.
# Submitted via: audiograbber 1.81.02
#
DISCID=5b06700a
DTITLE=Buddy Davis - The Best of Buddy Davis
DYEAR=2000
DGENRE=Gospel
TTITLE0=Whale of a Story
TTITLE1=Old Account
TTITLE2=It's Designed to Do
TTITLE3=Billions of Dead Things
TTITLE4=He Makes Dreams Out of Nothing
TTITLE5=O Come All Ye Faithful
TTITLE6=By Him All Things Were Created
TTITLE7=The Hands that Created the World
TTITLE8=If We Never Meet Again
TTITLE9=One Was Left, and One Was Right
EXTD=www.answersingenesis.org
EXTT0=
EXTT1=
EXTT2=
EXTT3=
EXTT4=
EXTT5=
EXTT6=
EXTT7=
EXTT8=
EXTT9=
PLAYORDER=
